<svg width="29" height="25" viewBox="0 0 29 25" fill="none" xmlns="http://www.w3.org/2000/svg">
<path d="M3.125 9.375L5.46875 2.34375H22.6562L25 9.375M22.6562 17.1875C22.0346 17.1875 21.4385 16.9406 20.999 16.501C20.5594 16.0615 20.3125 15.4654 20.3125 14.8438C20.3125 14.2221 20.5594 13.626 20.999 13.1865C21.4385 12.7469 22.0346 12.5 22.6562 12.5C23.2779 12.5 23.874 12.7469 24.3135 13.1865C24.7531 13.626 25 14.2221 25 14.8438C25 15.4654 24.7531 16.0615 24.3135 16.501C23.874 16.9406 23.2779 17.1875 22.6562 17.1875ZM5.46875 17.1875C4.84715 17.1875 4.25101 16.9406 3.81147 16.501C3.37193 16.0615 3.125 15.4654 3.125 14.8438C3.125 14.2221 3.37193 13.626 3.81147 13.1865C4.25101 12.7469 4.84715 12.5 5.46875 12.5C6.09035 12.5 6.68649 12.7469 7.12603 13.1865C7.56557 13.626 7.8125 14.2221 7.8125 14.8438C7.8125 15.4654 7.56557 16.0615 7.12603 16.501C6.68649 16.9406 6.09035 17.1875 5.46875 17.1875ZM24.875 1.5625C24.5625 0.65625 23.6875 0 22.6562 0H5.46875C4.4375 0 3.5625 0.65625 3.25 1.5625L0 10.9375V23.4375C0 23.8519 0.16462 24.2493 0.457646 24.5424C0.750671 24.8354 1.1481 25 1.5625 25H3.125C3.5394 25 3.93683 24.8354 4.22985 24.5424C4.52288 24.2493 4.6875 23.8519 4.6875 23.4375V21.875H23.4375V23.4375C23.4375 23.8519 23.6021 24.2493 23.8951 24.5424C24.1882 24.8354 24.5856 25 25 25H26.5625C26.9769 25 27.3743 24.8354 27.6674 24.5424C27.9604 24.2493 28.125 23.8519 28.125 23.4375V10.9375L24.875 1.5625Z" fill="#191919"/>
</svg>
