<svg width="23" height="25" viewBox="0 0 23 25" fill="none" xmlns="http://www.w3.org/2000/svg">
<path d="M19.4444 9.72222C19.0761 9.72222 18.7228 9.57589 18.4623 9.31543C18.2019 9.05496 18.0556 8.70169 18.0556 8.33333C18.0556 7.96498 18.2019 7.61171 18.4623 7.35124C18.7228 7.09077 19.0761 6.94444 19.4444 6.94444C19.8128 6.94444 20.1661 7.09077 20.4265 7.35124C20.687 7.61171 20.8333 7.96498 20.8333 8.33333C20.8333 8.70169 20.687 9.05496 20.4265 9.31543C20.1661 9.57589 19.8128 9.72222 19.4444 9.72222ZM11.1111 9.72222H2.77778V2.77778H11.1111M21.9028 5.875L21.9167 5.86111L16.75 0.694444L15.2778 2.16667L18.2083 5.09722C16.9028 5.55556 15.9722 6.84722 15.9722 8.33333C15.9722 8.78931 16.062 9.24083 16.2365 9.6621C16.411 10.0834 16.6668 10.4661 16.9892 10.7886C17.6404 11.4397 18.5236 11.8056 19.4444 11.8056C19.9444 11.8056 20.4028 11.6944 20.8333 11.5139V21.5278C20.8333 21.8961 20.687 22.2494 20.4265 22.5099C20.1661 22.7703 19.8128 22.9167 19.4444 22.9167C19.0761 22.9167 18.7228 22.7703 18.4623 22.5099C18.2019 22.2494 18.0556 21.8961 18.0556 21.5278V15.2778C18.0556 13.7361 16.8056 12.5 15.2778 12.5H13.8889V2.77778C13.8889 1.23611 12.6389 0 11.1111 0H2.77778C1.23611 0 0 1.23611 0 2.77778V25H13.8889V14.5833H15.9722V21.5278C15.9722 22.4487 16.338 23.3318 16.9892 23.983C17.6404 24.6342 18.5236 25 19.4444 25C19.9004 25 20.3519 24.9102 20.7732 24.7357C21.1945 24.5612 21.5772 24.3054 21.8997 23.983C22.2221 23.6606 22.4779 23.2778 22.6524 22.8565C22.8269 22.4353 22.9167 21.9838 22.9167 21.5278V8.33333C22.9167 7.375 22.5278 6.5 21.9028 5.875Z" fill="#191919"/>
</svg>
