<svg width="239px" height="45px" xmlns="http://www.w3.org/2000/svg" viewBox="47.943749999999994 12.200000000000003 404.1125 125.6" style="background: rgb(253, 253, 253);" preserveAspectRatio="xMidYMid"><defs><linearGradient id="editing-outline-gradient" x1="-0.41354545764260087" x2="1.4135454576426008" y1="0.09326335692419985" y2="0.9067366430758002"><stop offset="0" stop-color="#85a2b6"></stop><stop offset="1" stop-color="#beddbb"></stop></linearGradient><filter id="editing-outline" x="-100%" y="-100%" width="300%" height="300%"><feMorphology in="SourceGraphic" operator="dilate" radius="2" result="outline"></feMorphology><feComposite operator="out" in="outline" in2="SourceAlpha"></feComposite></filter></defs><g filter="url(#editing-outline)"><g transform="translate(108.90997505187988, 98.93500137329102)"><path d="M26.75 0.38L26.75 0.38Q20.10 0.38 14.75-2.56L14.75-2.56L14.75-2.56Q9.41-5.50 6.37-10.72L6.37-10.72L6.37-10.72Q3.33-15.94 3.33-22.40L3.33-22.40L3.33-22.40Q3.33-28.86 6.37-34.08L6.37-34.08L6.37-34.08Q9.41-39.30 14.78-42.24L14.78-42.24L14.78-42.24Q20.16-45.18 26.82-45.18L26.82-45.18L26.82-45.18Q31.81-45.18 36.03-43.52L36.03-43.52L36.03-43.52Q40.26-41.86 43.20-38.66L43.20-38.66L40.19-35.65L40.19-35.65Q34.94-40.96 26.94-40.96L26.94-40.96L26.94-40.96Q21.63-40.96 17.28-38.53L17.28-38.53L17.28-38.53Q12.93-36.10 10.46-31.87L10.46-31.87L10.46-31.87Q8-27.65 8-22.40L8-22.40L8-22.40Q8-17.15 10.46-12.93L10.46-12.93L10.46-12.93Q12.93-8.70 17.28-6.27L17.28-6.27L17.28-6.27Q21.63-3.84 26.94-3.84L26.94-3.84L26.94-3.84Q35.01-3.84 40.19-9.22L40.19-9.22L43.20-6.21L43.20-6.21Q40.26-3.01 36-1.31L36-1.31L36-1.31Q31.74 0.38 26.75 0.38L26.75 0.38ZM78.14-33.66L82.69-33.66L82.69 0L78.34 0L78.34-6.14L78.34-6.14Q76.54-3.07 73.41-1.38L73.41-1.38L73.41-1.38Q70.27 0.32 66.24 0.32L66.24 0.32L66.24 0.32Q59.65 0.32 55.84-3.36L55.84-3.36L55.84-3.36Q52.03-7.04 52.03-14.14L52.03-14.14L52.03-33.66L56.58-33.66L56.58-14.59L56.58-14.59Q56.58-9.28 59.20-6.53L59.20-6.53L59.20-6.53Q61.82-3.78 66.69-3.78L66.69-3.78L66.69-3.78Q72-3.78 75.07-7.01L75.07-7.01L75.07-7.01Q78.14-10.24 78.14-16L78.14-16L78.14-33.66ZM104.45 0.32L104.45 0.32Q100.35 0.32 96.61-0.86L96.61-0.86L96.61-0.86Q92.86-2.05 90.75-3.84L90.75-3.84L92.80-7.42L92.80-7.42Q94.91-5.76 98.11-4.70L98.11-4.70L98.11-4.70Q101.31-3.65 104.77-3.65L104.77-3.65L104.77-3.65Q109.38-3.65 111.58-5.09L111.58-5.09L111.58-5.09Q113.79-6.53 113.79-9.15L113.79-9.15L113.79-9.15Q113.79-11.01 112.58-12.06L112.58-12.06L112.58-12.06Q111.36-13.12 109.50-13.66L109.50-13.66L109.50-13.66Q107.65-14.21 104.58-14.72L104.58-14.72L104.58-14.72Q100.48-15.49 97.98-16.29L97.98-16.29L97.98-16.29Q95.49-17.09 93.73-19.01L93.73-19.01L93.73-19.01Q91.97-20.93 91.97-24.32L91.97-24.32L91.97-24.32Q91.97-28.54 95.49-31.23L95.49-31.23L95.49-31.23Q99.01-33.92 105.28-33.92L105.28-33.92L105.28-33.92Q108.54-33.92 111.81-33.06L111.81-33.06L111.81-33.06Q115.07-32.19 117.18-30.78L117.18-30.78L115.20-27.14L115.20-27.14Q111.04-30.02 105.28-30.02L105.28-30.02L105.28-30.02Q100.93-30.02 98.72-28.48L98.72-28.48L98.72-28.48Q96.51-26.94 96.51-24.45L96.51-24.45L96.51-24.45Q96.51-22.53 97.76-21.38L97.76-21.38L97.76-21.38Q99.01-20.22 100.86-19.68L100.86-19.68L100.86-19.68Q102.72-19.14 105.98-18.56L105.98-18.56L105.98-18.56Q110.02-17.79 112.45-17.02L112.45-17.02L112.45-17.02Q114.88-16.26 116.61-14.40L116.61-14.40L116.61-14.40Q118.34-12.54 118.34-9.28L118.34-9.28L118.34-9.28Q118.34-4.86 114.66-2.27L114.66-2.27L114.66-2.27Q110.98 0.32 104.45 0.32L104.45 0.32ZM142.85-5.31L144.45-2.05L144.45-2.05Q143.17-0.90 141.28-0.29L141.28-0.29L141.28-0.29Q139.39 0.32 137.34 0.32L137.34 0.32L137.34 0.32Q132.61 0.32 130.05-2.24L130.05-2.24L130.05-2.24Q127.49-4.80 127.49-9.47L127.49-9.47L127.49-29.82L121.47-29.82L121.47-33.66L127.49-33.66L127.49-41.02L132.03-41.02L132.03-33.66L142.27-33.66L142.27-29.82L132.03-29.82L132.03-9.73L132.03-9.73Q132.03-6.72 133.54-5.15L133.54-5.15L133.54-5.15Q135.04-3.58 137.86-3.58L137.86-3.58L137.86-3.58Q139.26-3.58 140.58-4.03L140.58-4.03L140.58-4.03Q141.89-4.48 142.85-5.31L142.85-5.31ZM166.46 0.32L166.46 0.32Q161.60 0.32 157.70-1.89L157.70-1.89L157.70-1.89Q153.79-4.10 151.55-8L151.55-8L151.55-8Q149.31-11.90 149.31-16.83L149.31-16.83L149.31-16.83Q149.31-21.76 151.55-25.66L151.55-25.66L151.55-25.66Q153.79-29.57 157.70-31.74L157.70-31.74L157.70-31.74Q161.60-33.92 166.46-33.92L166.46-33.92L166.46-33.92Q171.33-33.92 175.23-31.74L175.23-31.74L175.23-31.74Q179.14-29.57 181.34-25.66L181.34-25.66L181.34-25.66Q183.55-21.76 183.55-16.83L183.55-16.83L183.55-16.83Q183.55-11.90 181.34-8L181.34-8L181.34-8Q179.14-4.10 175.23-1.89L175.23-1.89L175.23-1.89Q171.33 0.32 166.46 0.32L166.46 0.32ZM166.46-3.71L166.46-3.71Q170.05-3.71 172.90-5.34L172.90-5.34L172.90-5.34Q175.74-6.98 177.34-9.98L177.34-9.98L177.34-9.98Q178.94-12.99 178.94-16.83L178.94-16.83L178.94-16.83Q178.94-20.67 177.34-23.68L177.34-23.68L177.34-23.68Q175.74-26.69 172.90-28.32L172.90-28.32L172.90-28.32Q170.05-29.95 166.46-29.95L166.46-29.95L166.46-29.95Q162.88-29.95 160.03-28.32L160.03-28.32L160.03-28.32Q157.18-26.69 155.55-23.68L155.55-23.68L155.55-23.68Q153.92-20.67 153.92-16.83L153.92-16.83L153.92-16.83Q153.92-12.99 155.55-9.98L155.55-9.98L155.55-9.98Q157.18-6.98 160.03-5.34L160.03-5.34L160.03-5.34Q162.88-3.71 166.46-3.71L166.46-3.71ZM219.01-47.49L223.55-47.49L223.55 0L219.20 0L219.20-6.66L219.20-6.66Q217.15-3.26 213.79-1.47L213.79-1.47L213.79-1.47Q210.43 0.32 206.21 0.32L206.21 0.32L206.21 0.32Q201.47 0.32 197.63-1.86L197.63-1.86L197.63-1.86Q193.79-4.03 191.62-7.94L191.62-7.94L191.62-7.94Q189.44-11.84 189.44-16.83L189.44-16.83L189.44-16.83Q189.44-21.82 191.62-25.73L191.62-25.73L191.62-25.73Q193.79-29.63 197.63-31.78L197.63-31.78L197.63-31.78Q201.47-33.92 206.21-33.92L206.21-33.92L206.21-33.92Q210.30-33.92 213.60-32.22L213.60-32.22L213.60-32.22Q216.90-30.53 219.01-27.26L219.01-27.26L219.01-47.49ZM206.59-3.71L206.59-3.71Q210.11-3.71 212.96-5.34L212.96-5.34L212.96-5.34Q215.81-6.98 217.44-9.98L217.44-9.98L217.44-9.98Q219.07-12.99 219.07-16.83L219.07-16.83L219.07-16.83Q219.07-20.67 217.44-23.68L217.44-23.68L217.44-23.68Q215.81-26.69 212.96-28.32L212.96-28.32L212.96-28.32Q210.11-29.95 206.59-29.95L206.59-29.95L206.59-29.95Q203.01-29.95 200.16-28.32L200.16-28.32L200.16-28.32Q197.31-26.69 195.68-23.68L195.68-23.68L195.68-23.68Q194.05-20.67 194.05-16.83L194.05-16.83L194.05-16.83Q194.05-12.99 195.68-9.98L195.68-9.98L195.68-9.98Q197.31-6.98 200.16-5.34L200.16-5.34L200.16-5.34Q203.01-3.71 206.59-3.71L206.59-3.71ZM236.22 0L236.22-33.66L240.77-33.66L240.77 0L236.22 0ZM238.53-41.02L238.53-41.02Q237.12-41.02 236.16-41.98L236.16-41.98L236.16-41.98Q235.20-42.94 235.20-44.29L235.20-44.29L235.20-44.29Q235.20-45.57 236.16-46.53L236.16-46.53L236.16-46.53Q237.12-47.49 238.53-47.49L238.53-47.49L238.53-47.49Q239.94-47.49 240.90-46.56L240.90-46.56L240.90-46.56Q241.86-45.63 241.86-44.35L241.86-44.35L241.86-44.35Q241.86-42.94 240.90-41.98L240.90-41.98L240.90-41.98Q239.94-41.02 238.53-41.02L238.53-41.02ZM265.22-33.92L265.22-33.92Q271.81-33.92 275.33-30.62L275.33-30.62L275.33-30.62Q278.85-27.33 278.85-20.86L278.85-20.86L278.85 0L274.50 0L274.50-5.25L274.50-5.25Q272.96-2.62 269.98-1.15L269.98-1.15L269.98-1.15Q267.01 0.32 262.91 0.32L262.91 0.32L262.91 0.32Q257.28 0.32 253.95-2.37L253.95-2.37L253.95-2.37Q250.62-5.06 250.62-9.47L250.62-9.47L250.62-9.47Q250.62-13.76 253.73-16.38L253.73-16.38L253.73-16.38Q256.83-19.01 263.62-19.01L263.62-19.01L274.30-19.01L274.30-21.06L274.30-21.06Q274.30-25.41 271.87-27.68L271.87-27.68L271.87-27.68Q269.44-29.95 264.77-29.95L264.77-29.95L264.77-29.95Q261.57-29.95 258.62-28.90L258.62-28.90L258.62-28.90Q255.68-27.84 253.57-25.98L253.57-25.98L251.52-29.38L251.52-29.38Q254.08-31.55 257.66-32.74L257.66-32.74L257.66-32.74Q261.25-33.92 265.22-33.92L265.22-33.92ZM263.62-3.26L263.62-3.26Q267.46-3.26 270.21-5.02L270.21-5.02L270.21-5.02Q272.96-6.78 274.30-10.11L274.30-10.11L274.30-15.62L263.74-15.62L263.74-15.62Q255.10-15.62 255.10-9.60L255.10-9.60L255.10-9.60Q255.10-6.66 257.34-4.96L257.34-4.96L257.34-4.96Q259.58-3.26 263.62-3.26L263.62-3.26Z" fill="url(#editing-outline-gradient)"></path></g></g><style>text {
  font-size: 64px;
  font-family: Arial Black;
  dominant-baseline: central;
  text-anchor: middle;
}</style></svg>